<?xml version="1.0" encoding="utf-8"?>
<!-- Generator: Adobe Illustrator 25.2.1, SVG Export Plug-In . SVG Version: 6.00 Build 0)  -->
<svg version="1.1" id="Camada_1" xmlns="http://www.w3.org/2000/svg" xmlns:xlink="http://www.w3.org/1999/xlink" x="0px" y="0px"
	 viewBox="0 0 500 500" style="enable-background:new 0 0 500 500;" xml:space="preserve">
<style type="text/css">
	.st0{fill:#455A64;}
	.st1{fill:#263238;}
	.st2{fill:#7C51F3;}
	.st3{opacity:0.1;enable-background:new    ;}
	.st4{fill:#FFFFFF;}
	.st5{opacity:0.2;enable-background:new    ;}
	.st6{fill:#EBEBEB;}
	.st7{fill:#F0F0F0;}
	.st8{fill:#E0E0E0;}
	.st9{fill:#FAFAFA;}
	.st10{fill:none;stroke:#EBEBEB;stroke-width:0.5692;stroke-linecap:round;stroke-miterlimit:10;}
	.st11{fill:none;stroke:#7C51F3;stroke-width:0.5692;stroke-linecap:round;stroke-miterlimit:10;}
	.st12{opacity:0.25;}
	.st13{fill:#F28F8F;}
	.st14{fill:#FFA8A7;}
	.st15{fill:#37474F;}
	.st16{fill:#F5F5F5;}
	.st17{opacity:0.3;}
	.st18{opacity:0.1;}
</style>
<g id="freepik--Floor--inject-3">
	<path id="freepik--floor--inject-3" class="st0" d="M88.7,405.5c89.6,51.6,234.8,51.6,324.4,0s89.6-135.2,0-186.7
		s-234.8-51.6-324.4,0S-0.9,354,88.7,405.5z"/>
</g>
<g id="freepik--Shadow--inject-3">
	<path id="freepik--Shadows--inject-3" class="st1" d="M74.3,349.7l139,80.2c2.8,1.4,6.2,1.4,9,0l210.9-121.8c2.5-1.4,2.5-3.8,0-5.2
		l-139-80.2c-2.8-1.4-6.2-1.4-9,0L74.3,344.5C71.8,346,71.8,348.3,74.3,349.7z"/>
	<path id="freepik--shadow--inject-3" class="st1" d="M415.6,229.5c-16.4-6.6-42.6-6.6-58.4,0s-15.9,17.2,0,23.8s42,6.6,58.4,0
		S432,236.1,415.6,229.5z"/>
	<ellipse id="freepik--shadow--inject-3_1_" class="st1" cx="85.8" cy="288" rx="33.6" ry="16"/>
</g>
<g id="freepik--Plants--inject-3">
	<g id="freepik--plants--inject-3">
		<path class="st2" d="M65.2,258.9c-0.5-6.4-5.4-17.2-12.7-24.9s-18.9-11.4-26-8.3c-6.7,2.9-5.2,11.8,3.6,17.1s21.9,11.8,26.4,21.8
			l8.7,12V258.9z"/>
		<path class="st3" d="M65.2,258.9c-0.5-6.4-5.4-17.2-12.7-24.9s-18.9-11.4-26-8.3c-6.7,2.9-5.2,11.8,3.6,17.1s21.9,11.8,26.4,21.8
			l8.7,12V258.9z"/>
		<path class="st4" d="M66.1,267.3h0.1c0.2-0.1,0.4-0.3,0.3-0.6c-7.1-21.5-27.4-36-35.8-37.4c-0.2,0-0.5,0.1-0.5,0.4c0,0,0,0,0,0
			c0,0.2,0.1,0.5,0.4,0.5c8.2,1.4,28.1,15.6,35.1,36.8C65.8,267.2,65.9,267.3,66.1,267.3z"/>
		<path class="st2" d="M64.3,285.2c-1.3-3.5-6.1-9-13.6-13.3c-8.2-4.8-18.3-6.4-20.9-10.4c-3.1-4.8,0.7-9.9,8.8-9.6
			s23.1,10.2,26.6,26.4L64.3,285.2z"/>
		<path class="st4" d="M64.6,278.5c0.1,0,0.1,0,0.2,0c0.2-0.1,0.3-0.4,0.2-0.6c0,0,0,0,0,0c-7-13.9-21.7-20.4-29.3-22
			c-0.2,0-0.5,0.1-0.5,0.3c0,0.2,0.1,0.5,0.3,0.5c7.4,1.6,21.8,8,28.7,21.5C64.3,278.5,64.5,278.5,64.6,278.5z"/>
	</g>
</g>
<g id="freepik--Notebook--inject-3">
	<g id="freepik--notebook--inject-3">
		<path class="st2" d="M178.4,280v-2.7L282.3,220c1.5-0.8,3.4-0.8,4.9,0l144.1,81.3v2.7c-0.1,0.6-0.4,1.2-1,1.4l-103.9,60L178.4,280
			z"/>
		<path class="st3" d="M431.3,304v-2.7l-1.8-1l-103.2,62.4v2.7l103.9-60C430.9,305.2,431.3,304.6,431.3,304z"/>
		<path class="st2" d="M178.4,277.2l103.9-60c1.5-0.8,3.4-0.8,4.9,0l143.1,82.6c1.4,0.8,1.4,2.1,0,2.8l-103.9,60L178.4,277.2z"/>
		<polygon class="st5" points="326.4,365.4 326.4,362.7 178.4,277.2 178.4,280 		"/>
		<path class="st2" d="M180.8,281.3l-105,55.3l-2.2,3.4v2.7c0.1,1.4,0.9,2.7,2.2,3.4L214.2,426c2.3,1.2,5,1.2,7.2,0l102.7-59.3V364
			L180.8,281.3z"/>
		<path class="st3" d="M180.8,281.3l-105,55.3l-2.2,3.4v2.7c0.1,1.4,0.9,2.7,2.2,3.4L214.2,426c2.3,1.2,5,1.2,7.2,0l102.7-59.3V364
			L180.8,281.3z"/>
		<path class="st2" d="M217.8,424.2c-1.3,0-2.5-0.3-3.6-0.9L75.8,343.4c-1.9-0.9-2.7-3.1-1.8-5c0.4-0.8,1-1.4,1.8-1.8l100.4-58
			L324.1,364l-102.7,59.3C220.3,423.9,219.1,424.2,217.8,424.2z"/>
		<path class="st6" d="M176.2,270.6l-99.3,57.3l-1,1.4V340l0,0c0.1,0.6,0.4,1.2,1,1.4l138.4,79.9c1.6,0.8,3.4,0.8,4.9,0l99.3-57.4
			v-10.6L176.2,270.6z"/>
		<path class="st7" d="M319.5,353.4l-1.2,0.7l-16.2,9.3l-3,1.8l-78.9,45.5c-1.5,0.8-3.4,0.8-4.9,0L76.9,330.8
			c-1.3-0.8-1.3-2.1,0-2.9l1.3-0.8l98-56.5l142.1,82.1l0.3,0.2L319.5,353.4z"/>
		<path class="st8" d="M217.8,411.3v10.6c-0.9,0-1.7-0.2-2.5-0.6L76.9,341.4c-0.6-0.3-0.9-0.8-1-1.4v-10.7c0.1,0.6,0.4,1.2,1,1.4
			l138.4,79.9C216.1,411.1,216.9,411.3,217.8,411.3z"/>
		<path class="st9" d="M319.5,352l-17.9,10.3l-2.8,1.6l-78.6,45.4c-1.5,0.8-3.4,0.8-4.9,0l-124-71.6c-1.1-0.6-2.2-1.2-3.1-1.8
			c-5-3.1-8.1-5.8-10-8.7l-0.2-0.4c-0.1-0.2-0.3-0.5-0.3-0.7c-0.2-1.2,0.6-2.3,1.7-2.5c3.2-0.9,6.4-2.3,9.3-3.9l0.1-0.1l87.3-50.4
			L319.5,352z"/>
		<path class="st3" d="M301,350.7c-1.3,0.7-1.3,1.9,0,2.7c1.4,0.7,3.2,0.7,4.6,0c1.3-0.7,1.3-1.9,0-2.7
			C304.2,350,302.4,350,301,350.7z"/>
		<path class="st1" d="M315.8,342.1c-1.8-1-4-0.9-6.2,0.4c-3.5,2-6.5,6.5-7.8,11.2c0.5,0.2,1.1,0.2,1.7,0.2c1.2-4.2,3.9-8.1,7-9.9
			c0.9-0.5,1.8-0.8,2.8-0.9c0.6,0,1.2,0.1,1.7,0.4c1.5,0.9,2.3,2.9,2.3,5.7c0,0.5,0,0.9-0.1,1.4l1.6,0.9c0.1-0.8,0.2-1.5,0.2-2.3
			C319,345.9,317.9,343.2,315.8,342.1z"/>
		<path class="st1" d="M318.7,352.5c0,0.1,0,0.3-0.1,0.4l-0.3-0.2L318.7,352.5z"/>
		<path class="st3" d="M287.2,342.7c-1.3,0.7-1.3,1.9,0,2.7c1.4,0.7,3.2,0.7,4.6,0c1.3-0.7,1.3-1.9,0-2.7
			C290.3,342,288.6,342,287.2,342.7z"/>
		<path class="st1" d="M302,334.1c-1.8-1-4-0.9-6.2,0.4c-3.5,2-6.5,6.5-7.8,11.2c0.5,0.2,1.1,0.2,1.7,0.2c1.2-4.2,3.9-8.1,7-9.9
			c0.8-0.5,1.8-0.8,2.8-0.9c0.6,0,1.2,0.1,1.7,0.4c1.5,0.9,2.3,2.9,2.3,5.7c0,0.5,0,0.9-0.1,1.4l1.6,0.9c0.1-0.8,0.2-1.5,0.2-2.3
			C305.1,337.9,304,335.2,302,334.1z"/>
		<path class="st3" d="M273.3,334.7c-0.7,0.3-1.1,1.1-0.9,1.8c0.1,0.4,0.5,0.7,0.9,0.9c1.4,0.7,3.2,0.7,4.6,0c1.3-0.7,1.3-1.9,0-2.7
			C276.4,333.9,274.7,333.9,273.3,334.7z"/>
		<path class="st1" d="M288.1,326.1c-1.8-1-4-0.9-6.2,0.4c-3.5,2-6.5,6.5-7.8,11.2c0.5,0.2,1.1,0.2,1.7,0.2c1.2-4.2,3.9-8.1,6.9-9.9
			c0.9-0.5,1.8-0.8,2.8-0.9c0.6,0,1.2,0.1,1.7,0.4c1.5,0.9,2.3,2.9,2.3,5.7c0,0.5,0,0.9-0.1,1.4l1.6,0.9c0.1-0.8,0.2-1.5,0.2-2.3
			C291.3,329.9,290.1,327.2,288.1,326.1z"/>
		<path class="st3" d="M259.4,326.7c-1.3,0.7-1.3,1.9,0,2.7c1.4,0.7,3.2,0.7,4.6,0c1.3-0.7,1.3-1.9,0-2.7
			C262.6,325.9,260.9,325.9,259.4,326.7z"/>
		<path class="st1" d="M274.2,318c-1.8-1-4-0.9-6.2,0.4c-3.5,2-6.5,6.5-7.8,11.2c0.5,0.2,1.1,0.2,1.7,0.2c1.2-4.2,3.9-8.1,6.9-9.9
			c0.9-0.5,1.8-0.8,2.8-0.9c0.6,0,1.2,0.1,1.7,0.4c1.5,0.9,2.3,2.9,2.3,5.7c0,0.5,0,0.9-0.1,1.4l1.6,0.9c0.1-0.8,0.2-1.5,0.2-2.3
			C277.4,321.8,276.2,319.2,274.2,318z"/>
		<path class="st3" d="M245.5,318.7c-0.7,0.3-1.1,1.1-0.9,1.8c0.1,0.4,0.5,0.7,0.9,0.9c1.4,0.7,3.2,0.7,4.6,0c1.3-0.7,1.3-1.9,0-2.7
			C248.7,317.9,247,317.9,245.5,318.7z"/>
		<path class="st1" d="M260.3,310c-1.8-1-4-0.9-6.2,0.4c-3.5,2-6.5,6.5-7.8,11.2c0.5,0.2,1.1,0.2,1.7,0.2c1.2-4.2,3.9-8.1,6.9-9.9
			c0.8-0.5,1.8-0.8,2.8-0.9c0.6,0,1.2,0.1,1.7,0.4c1.5,0.9,2.3,2.9,2.3,5.7c0,0.5,0,0.9-0.1,1.4l1.6,0.9c0.1-0.8,0.2-1.5,0.2-2.3
			C263.5,313.8,262.4,311.2,260.3,310z"/>
		<path class="st3" d="M231.7,310.7c-1.3,0.7-1.3,1.9,0,2.7c1.4,0.7,3.2,0.7,4.6,0c1.3-0.7,1.3-1.9,0-2.7
			C234.8,309.9,233.1,309.9,231.7,310.7z"/>
		<path class="st1" d="M246.5,302c-1.8-1-4-0.9-6.2,0.4c-3.5,2-6.5,6.5-7.8,11.2c0.5,0.2,1.1,0.2,1.7,0.2c1.2-4.2,3.9-8.1,6.9-9.9
			c0.9-0.5,1.8-0.8,2.8-0.9c0.6,0,1.2,0.1,1.7,0.4c1.5,0.9,2.3,2.9,2.3,5.7c0,0.5,0,0.9-0.1,1.4l1.6,0.9c0.1-0.8,0.2-1.5,0.2-2.3
			C249.6,305.8,248.5,303.2,246.5,302z"/>
		<path class="st3" d="M217.8,302.6c-1.3,0.7-1.3,1.9,0,2.7c1.4,0.7,3.2,0.7,4.6,0c1.3-0.7,1.3-1.9,0-2.7
			C221,301.9,219.2,301.9,217.8,302.6z"/>
		<path class="st1" d="M232.6,294c-1.8-1-4-0.9-6.2,0.4c-3.5,2-6.5,6.5-7.8,11.2c0.5,0.2,1.1,0.2,1.7,0.2c1.2-4.2,3.9-8.1,6.9-9.9
			c0.9-0.5,1.8-0.8,2.8-0.9c0.6,0,1.2,0.1,1.7,0.4c1.5,0.9,2.3,2.9,2.3,5.7c0,0.5,0,0.9-0.1,1.4l1.6,0.9c0.1-0.8,0.2-1.5,0.2-2.3
			C235.8,297.8,234.6,295.2,232.6,294z"/>
		<path class="st3" d="M203.9,294.6c-0.7,0.3-1.1,1.1-0.9,1.8c0.1,0.4,0.5,0.7,0.9,0.9c1.4,0.7,3.2,0.7,4.6,0c1.3-0.7,1.3-1.9,0-2.7
			C207.1,293.9,205.4,293.9,203.9,294.6z"/>
		<path class="st1" d="M218.7,286c-1.8-1-4-0.9-6.2,0.4c-3.5,2-6.5,6.5-7.8,11.2c0.5,0.2,1.1,0.2,1.7,0.2c1.2-4.2,3.9-8.1,6.9-9.9
			c0.9-0.5,1.8-0.8,2.8-0.9c0.6,0,1.2,0.1,1.7,0.4c1.5,0.9,2.3,2.9,2.3,5.7c0,0.5,0,0.9-0.1,1.4l1.6,0.9c0.1-0.8,0.2-1.5,0.2-2.3
			C221.9,289.8,220.7,287.2,218.7,286z"/>
		<path class="st3" d="M190.1,286.6c-1.3,0.7-1.3,1.9,0,2.7c1.4,0.7,3.2,0.7,4.6,0c1.3-0.7,1.3-1.9,0-2.7
			C193.2,285.9,191.5,285.9,190.1,286.6z"/>
		<path class="st1" d="M204.8,278c-1.8-1-4-0.9-6.2,0.4c-3.5,2-6.5,6.5-7.8,11.2c0.5,0.2,1.1,0.2,1.7,0.2c1.2-4.2,3.9-8.1,6.9-9.9
			c0.9-0.5,1.8-0.8,2.8-0.9c0.6,0,1.2,0.1,1.7,0.4c1.5,0.9,2.3,2.9,2.3,5.7c0,0.5,0,0.9-0.1,1.4l1.6,0.9c0.1-0.8,0.2-1.5,0.2-2.3
			C208,281.8,206.9,279.2,204.8,278z"/>
		<path class="st3" d="M176.2,278.6c-0.7,0.3-1.1,1.1-0.9,1.8c0.1,0.4,0.5,0.7,0.9,0.9c1.4,0.7,3.2,0.7,4.6,0c1.3-0.7,1.3-1.9,0-2.7
			C179.3,277.9,177.6,277.9,176.2,278.6z"/>
		<path class="st1" d="M191,270c-1.8-1-3.9-0.9-6.2,0.4c-3.5,2-6.5,6.5-7.8,11.2c0.5,0.2,1.1,0.2,1.7,0.2c1.2-4.2,3.9-8.1,6.9-9.9
			c0.8-0.5,1.8-0.8,2.8-0.9c0.6,0,1.2,0.1,1.7,0.4c1.5,0.9,2.3,2.9,2.3,5.7c0,0.5,0,0.9-0.1,1.4l1.6,0.9c0.1-0.8,0.2-1.5,0.2-2.3
			C194.1,273.8,193,271.2,191,270z"/>
		<line class="st10" x1="280.3" y1="349.3" x2="203.9" y2="393.4"/>
		<line class="st10" x1="271" y1="344" x2="194.7" y2="388.1"/>
		<line class="st10" x1="261.8" y1="338.6" x2="185.4" y2="382.8"/>
		<line class="st10" x1="252.6" y1="333.3" x2="176.2" y2="377.4"/>
		<line class="st10" x1="243.3" y1="328" x2="166.9" y2="372.1"/>
		<line class="st10" x1="234.1" y1="322.6" x2="157.7" y2="366.7"/>
		<line class="st10" x1="224.8" y1="317.3" x2="148.4" y2="361.4"/>
		<line class="st10" x1="215.6" y1="312" x2="139.2" y2="356"/>
		<line class="st10" x1="206.3" y1="306.6" x2="129.9" y2="350.7"/>
		<line class="st10" x1="197.1" y1="301.3" x2="120.7" y2="345.4"/>
		<line class="st10" x1="187.8" y1="295.9" x2="111.4" y2="340"/>
		<line class="st10" x1="178.6" y1="290.6" x2="102.2" y2="334.7"/>
		<line class="st10" x1="169.3" y1="285.2" x2="92.9" y2="329.3"/>
		<line class="st11" x1="164.7" y1="282.6" x2="298.8" y2="360"/>
		<line class="st11" x1="294.1" y1="352" x2="213.3" y2="398.8"/>
		<g class="st12">
			<path class="st0" d="M253.7,342.3c-0.7-1.1-2-1.5-3.1-2c-0.4-0.2-1-0.5-1.5-0.8c-0.7-1.1-1.6-3-0.4-3.2c0.7-0.1,2.2,0.6,3,0.9
				c0.4,0.1,0.4-0.5,0-0.6c-1.4-0.5-4-2.2-4.5,0.1c-0.1,0.7,0,1.5,0.3,2.1c-0.6-0.3-1.3-0.4-2-0.4c-0.6,0.1-1.2,0.1-1.4,0.8
				c-0.1,0.4,0.1,0.6,0.1,0.9c0.1,0.3,0.3,0.6,0.6,0.7c-0.1,0-0.3,0-0.7,0c-1,0-3.6-0.7-4.2,0.5c-0.2,0.5,0.3,1.2,0.2,1.4
				s-1.9,0.7-2.2,0.9c-0.1,0.1-0.1,0.6-0.1,0.7c-0.9,0.1-1.9,0.1-2.8,0c-1.5,0.1-5.3-0.5-4.8,1.9c0.1,0.2,0.3,0.2,0.3,0.6
				c0,0.2,0,0.4,0.1,0.6c-0.1,0-0.2,0-0.4,0.3s-0.7,0.1-0.9,0.4c-0.7,0.9,0.4,1.2-0.5,1.8c-1.3,0.8-3.9-0.8-5.2,0.1
				c-1.1,0.8,0.4,3.1-1.7,3.1c-0.4,0-0.2,0.7,0.1,0.7c1.9,0.2,1.7-0.2,2.1-1.8c0.6-2.5,4.4-0.8,6.5-1.4c0.2-0.1,0.3-0.3,0.2-0.5
				c0,0,0-0.1,0-0.1c-0.6-0.9,0.1-1.4,0.9-1.8c0.2-0.1,0.3-0.3,0.2-0.5c0,0,0,0,0-0.1c-0.2-0.4-1-1.7-0.5-2.3
				c0.7-0.2,1.5-0.2,2.2-0.3c1.6-0.1,3.3-0.1,4.9-0.1c0.2,0,0.3-0.2,0.3-0.4c0,0,0-0.1,0-0.1c-0.2-0.5,1.9-0.9,2.4-1
				c0.2-0.1,0.3-0.3,0.2-0.4c0,0,0,0,0,0c-1-2.5,2.7-1.6,4.3-1.4c0.2,0.1,0.4-0.1,0.4-0.3c0-0.1,0-0.2,0-0.2c-0.2-0.9-2.1-1.7,0.1-2
				c0.6,0,1.2,0.1,1.7,0.4c1,1.6,2.3,3,3.9,4C253.3,344.5,254.8,344,253.7,342.3z M253,342.7c0.5,0.6-1,0.1-1.2,0
				c-0.8-0.5-1.5-1.2-2-2.1c0.4,0.2,0.9,0.5,1.2,0.6C251.8,341.6,252.5,342.1,253,342.7z"/>
			<path class="st0" d="M215.5,358.4c-0.3-1.1-0.3-2.3,0.7-2.5c0.5-0.1,0.1-0.7-0.2-0.8c-1.4,0-1.8,1.2-1.6,2.6
				c-0.6-0.3-1.1-0.4-1.7-0.6c-0.9-0.2-1.5-0.2-1.8,0.7c-0.2,0.5,0.3,0.9,0.2,1.4c-0.1,0.7,0.7,0.4-0.4,0.7c-0.4,0-0.8-0.1-1.3-0.1
				c-1.1,0-1.2,0-1.9,0.6s1,0.9-1,0.5c-0.5-0.2-1-0.2-1.6-0.2c-0.7,0.2-1.1,0.4-1,1.2c0.1,0.4,0.9,0.9,0.8,1.1c0,1.8-1.9,0.3-2.6,0
				c-0.2-0.1-0.4,0-0.4,0.2c0,0,0,0.1,0,0.1c0,0.9,0.6,1.2-0.7,1.2c-0.1,0-1-0.5-1.3-0.5c-0.8,0-1.6,1.1-2.6,1
				c-0.3,0-0.4,0.2-0.3,0.5c0.3,0.8,0.7,1.3-0.9,2c0,0-1.9-0.2-1.8-0.2c-0.5,0-0.2,0.7,0.2,0.8c0.7,0,3.2,1.1,3.9,0.1
				c0.5-0.7-0.5-1.6-0.3-2c-0.2,0.3,1.4-0.4,1.6-0.5c0.4-0.2,0.8-0.3,1.2-0.3c0.2,0,0.4,0.4,0.6,0.4s0.6,0.1,0.9,0s0.4-0.5,0.5-0.6
				c0.3-0.2-0.4-0.4,0.2-0.6c0.4-0.1,0.8,0.3,1.1,0.4c0.6,0.2,1.5,0.6,2,0c0.7-0.8-0.6-1.4-0.4-2c0.3-1.2,2-0.3,2.9-0.9
				c0.1-0.1,0.2-0.2,0.1-0.4c-0.5-1.7,2.6-0.4,3.6-0.6c0.2,0,0.4-0.1,0.3-0.4s-0.4-1.1-0.4-1.1c0.2-1,1.7-0.9,2.3-0.8
				c0.6,2.1,2.3,4.2,4.1,3.7c0.1,0,0.2-0.2,0.2-0.3C218.8,360.8,217.2,359.4,215.5,358.4z M216.2,360.1c-0.1-0.1-0.1-0.3-0.2-0.5
				c0.5,0.3,0.9,0.8,1.3,1.3C217.5,361.9,216.3,360.4,216.2,360.1L216.2,360.1z"/>
			<path class="st0" d="M243.2,369.6c-0.7-1.1-2-1.5-3.1-2c-0.5-0.2-1-0.5-1.5-0.8c-0.7-1.1-1.6-3-0.4-3.2c0.7-0.1,2.2,0.6,3,0.9
				c0.4,0.1,0.3-0.5,0-0.6c-1.4-0.5-4-2.2-4.5,0.1c-0.1,0.7,0,1.5,0.3,2.1c-0.6-0.3-1.3-0.4-2-0.4c-0.6,0.1-1.2,0.1-1.4,0.8
				c-0.1,0.4,0.1,0.6,0.1,0.9c0.1,0.3,0.3,0.6,0.6,0.7c-0.1,0-0.3,0-0.7-0.1c-1,0-3.6-0.7-4.2,0.5c-0.3,0.5,0.3,1.2,0.2,1.4
				s-1.9,0.7-2.2,0.9c-0.1,0.1,0,0.6-0.1,0.7c-0.9,0.1-1.9,0.1-2.8,0c-1.5,0.1-5.3-0.4-4.8,1.9c0.1,0.3,0.3,0.2,0.3,0.6
				c0,0.2,0.1,0.4,0.1,0.6c-0.1,0-0.2,0-0.4,0.3s-0.6,0.1-0.8,0.4c-0.7,0.9,0.4,1.2-0.5,1.8c-1.3,0.8-3.9-0.8-5.2,0.1
				s0.3,3.1-1.7,3.1c-0.4,0-0.2,0.7,0.1,0.7c1.9,0.2,1.7-0.2,2.1-1.8c0.6-2.5,4.4-0.8,6.5-1.4c0.2-0.1,0.3-0.4,0.2-0.5
				c-0.6-0.9,0.1-1.4,0.9-1.8c0.2-0.1,0.3-0.3,0.2-0.5c0,0,0-0.1,0-0.1c-0.2-0.4-1-1.7-0.5-2.3c0.7-0.2,1.5-0.2,2.3-0.3
				c1.6-0.1,3.3-0.2,4.9-0.1c0.2,0,0.3-0.2,0.3-0.4c0,0,0-0.1,0-0.1c-0.2-0.5,1.9-0.9,2.4-1c0.2-0.1,0.3-0.3,0.2-0.4c0,0,0,0,0,0
				c-1-2.5,2.7-1.6,4.3-1.4c0.2,0,0.4-0.1,0.4-0.3c0-0.1,0-0.1,0-0.2c-0.2-0.9-2.1-1.7,0.1-2c0.6,0,1.2,0.1,1.7,0.4
				c1,1.6,2.3,3,3.9,4C242.9,371.9,244.4,371.4,243.2,369.6z M242.6,370.1c0.5,0.6-1,0.1-1.2,0c-0.8-0.5-1.5-1.2-2-2.1
				c0.5,0.2,0.9,0.5,1.2,0.6C241.3,368.9,242,369.4,242.6,370.1z"/>
			<path class="st0" d="M266.7,350.2c-0.3-1.1-0.3-2.3,0.7-2.5c0.5-0.1,0.1-0.7-0.2-0.8c-1.4,0-1.8,1.2-1.6,2.6
				c-0.5-0.3-1.1-0.5-1.7-0.6c-0.9-0.2-1.5-0.2-1.8,0.7c-0.2,0.5,0.3,0.9,0.2,1.4c0,0.7,0.7,0.4-0.4,0.7c-0.4,0-0.8-0.1-1.3-0.1
				c-1.1,0-1.2,0-1.9,0.6s1,0.9-1,0.5c-0.5-0.2-1-0.2-1.6-0.2c-0.7,0.2-1.1,0.4-1,1.2c0.1,0.4,0.8,0.9,0.8,1.1c0,1.8-1.9,0.3-2.6,0
				c-0.2-0.1-0.4,0-0.4,0.2c0,0,0,0.1,0,0.1c0,0.9,0.6,1.2-0.7,1.2c-0.1,0-1-0.5-1.3-0.5c-0.8,0-1.6,1.1-2.6,1
				c-0.3,0-0.4,0.2-0.3,0.5c0.3,0.8,0.7,1.3-0.9,2c0,0-1.9-0.2-1.8-0.2c-0.5,0-0.2,0.7,0.2,0.8c0.7,0,3.2,1.1,3.9,0.1
				c0.5-0.7-0.5-1.6-0.2-2c-0.2,0.3,1.4-0.4,1.6-0.5c0.4-0.2,0.8-0.3,1.2-0.3c0.2,0,0.4,0.4,0.6,0.4s0.6,0.1,0.9,0s0.4-0.5,0.5-0.6
				c0.3-0.2-0.4-0.4,0.2-0.6c0.4-0.1,0.7,0.3,1.1,0.4c0.6,0.2,1.5,0.6,2,0c0.7-0.8-0.6-1.4-0.4-2c0.2-1.2,2-0.3,2.9-0.9
				c0.1-0.1,0.2-0.2,0.1-0.4c-0.5-1.7,2.6-0.4,3.6-0.6c0.2,0,0.4-0.1,0.3-0.4s-0.4-1.1-0.4-1.1c0.2-1,1.7-0.9,2.3-0.8
				c0.6,2.1,2.3,4.2,4.1,3.7c0.1,0,0.2-0.2,0.2-0.3C270,352.6,268.4,351.2,266.7,350.2z M267.4,352c-0.1-0.2-0.2-0.3-0.2-0.5
				c0.5,0.3,0.9,0.8,1.3,1.3C268.8,353.8,267.5,352.3,267.4,352L267.4,352z"/>
			<path class="st0" d="M197.3,311.1c-0.7-1.1-2-1.5-3.1-2c-0.5-0.2-1-0.5-1.5-0.8c-0.7-1.1-1.6-3-0.4-3.2c0.7-0.1,2.2,0.6,3,0.9
				c0.4,0.1,0.3-0.5,0-0.6c-1.4-0.5-4-2.2-4.5,0.1c-0.1,0.7,0,1.5,0.3,2.1c-0.6-0.3-1.3-0.4-2-0.4c-0.6,0.1-1.2,0.1-1.4,0.8
				c-0.1,0.4,0,0.6,0.1,0.9c0.1,0.3,0.3,0.6,0.6,0.7c-0.2,0-0.5,0-0.7,0c-1,0-3.6-0.7-4.2,0.5c-0.2,0.5,0.3,1.2,0.2,1.4
				s-1.9,0.7-2.2,0.9c-0.1,0.1,0,0.6-0.1,0.6c-0.9,0.1-1.9,0.1-2.8,0c-1.5,0.1-5.3-0.4-4.8,1.9c0.1,0.2,0.3,0.2,0.3,0.6
				c0,0.2,0.1,0.4,0.1,0.6c-0.1,0-0.2,0-0.4,0.3s-0.6,0.1-0.8,0.4c-0.7,0.9,0.4,1.2-0.5,1.8c-1.3,0.8-3.9-0.8-5.2,0.1
				s0.4,3.1-1.7,3.1c-0.4,0-0.2,0.7,0.1,0.7c1.9,0.2,1.7-0.2,2.1-1.8c0.6-2.5,4.4-0.8,6.5-1.4c0.2-0.1,0.3-0.3,0.2-0.5
				c0,0,0-0.1-0.1-0.1c-0.6-0.9,0.1-1.4,0.9-1.8c0.2-0.1,0.3-0.3,0.2-0.5c0,0,0-0.1,0-0.1c-0.2-0.4-1-1.7-0.5-2.3
				c0.7-0.2,1.5-0.2,2.3-0.3c1.6-0.1,3.3-0.2,4.9-0.1c0.2,0,0.3-0.2,0.3-0.3c0,0,0-0.1,0-0.1c-0.2-0.5,1.9-0.9,2.4-1
				c0.2-0.1,0.3-0.3,0.2-0.5c-1-2.5,2.7-1.6,4.3-1.4c0.2,0,0.4-0.1,0.4-0.3c0-0.1,0-0.1,0-0.2c-0.2-0.9-2.1-1.7,0.1-2
				c0.6,0,1.2,0.1,1.7,0.4c1,1.6,2.3,3,3.9,4C196.9,313.3,198.4,312.8,197.3,311.1z M196.6,311.5c0.5,0.6-1,0.1-1.2,0
				c-0.8-0.5-1.5-1.2-2-2.1c0.5,0.2,0.9,0.5,1.2,0.6C195.4,310.4,196.1,310.9,196.6,311.5z"/>
			<path class="st0" d="M159.1,327.2c-0.3-1.1-0.3-2.3,0.7-2.4c0.5-0.1,0.1-0.7-0.2-0.8c-1.4,0-1.8,1.2-1.6,2.6
				c-0.5-0.3-1.1-0.5-1.7-0.6c-0.9-0.2-1.5-0.2-1.8,0.7c-0.2,0.5,0.3,0.9,0.2,1.4c0,0.7,0.7,0.4-0.4,0.7c-0.4,0-0.8,0-1.3-0.1
				c-0.7-0.2-1.4,0.1-1.9,0.6c-0.7,0.6,1,0.9-1,0.5c-0.5-0.2-1-0.3-1.6-0.2c-0.7,0.2-1.1,0.4-1,1.2c0,0.4,0.8,0.9,0.8,1.1
				c0,1.8-1.9,0.3-2.6,0c-0.2-0.1-0.4,0-0.4,0.2c0,0,0,0,0,0.1c0,0.9,0.6,1.2-0.7,1.2c-0.2,0-1-0.5-1.3-0.5c-0.8,0-1.6,1.1-2.6,1
				c-0.3,0-0.4,0.2-0.3,0.5c0.3,0.8,0.7,1.3-0.9,2c0,0-1.9-0.2-1.8-0.2c-0.5,0-0.2,0.8,0.2,0.8c0.7,0.1,3.2,1.1,3.9,0.1
				c0.5-0.7-0.5-1.6-0.3-2c-0.2,0.3,1.4-0.4,1.6-0.5c0.4-0.2,0.8-0.3,1.2-0.3c0.2,0,0.4,0.4,0.6,0.4s0.6,0.1,0.9,0s0.3-0.5,0.4-0.6
				c0.3-0.2-0.4-0.4,0.2-0.6s0.8,0.3,1.1,0.4c0.6,0.2,1.5,0.6,2,0c0.7-0.8-0.6-1.4-0.4-2c0.3-1.2,2.1-0.3,2.9-0.9
				c0.1-0.1,0.2-0.2,0.1-0.4c-0.5-1.7,2.6-0.4,3.6-0.6c0.2,0,0.4-0.1,0.3-0.4s-0.4-1.1-0.4-1.1c0.2-1,1.7-0.9,2.3-0.7
				c0.6,2.1,2.3,4.2,4.1,3.6c0.1,0,0.2-0.2,0.2-0.3C162.4,329.6,160.8,328.2,159.1,327.2z M159.7,328.9c-0.1-0.2-0.2-0.3-0.2-0.5
				c0.5,0.3,0.9,0.8,1.3,1.3C161.1,330.7,159.9,329.2,159.7,328.9z"/>
			<path class="st0" d="M186.8,338.5c-0.7-1.1-2-1.5-3.1-2c-0.4-0.2-1-0.5-1.5-0.8c-0.7-1.1-1.6-3-0.4-3.2c0.7-0.1,2.2,0.6,3,0.9
				c0.4,0.1,0.4-0.5,0-0.6c-1.4-0.5-4-2.2-4.5,0.1c-0.1,0.7,0,1.5,0.3,2.1c-0.6-0.3-1.3-0.4-2-0.4c-0.6,0.1-1.2,0.1-1.4,0.8
				c-0.1,0.4,0,0.6,0.1,0.9c0.1,0.3,0.3,0.6,0.6,0.7c-0.2,0-0.5-0.1-0.7-0.1c-1,0-3.6-0.7-4.2,0.5c-0.2,0.5,0.3,1.2,0.2,1.4
				s-1.9,0.7-2.2,0.9c-0.1,0.1-0.1,0.6-0.1,0.7c-0.9,0.1-1.9,0.1-2.8,0c-1.5,0.1-5.3-0.4-4.8,1.9c0,0.3,0.3,0.2,0.3,0.6
				c0,0.2,0.1,0.4,0.1,0.6c-0.1,0-0.2,0-0.4,0.3s-0.7,0.1-0.9,0.4c-0.7,0.9,0.4,1.2-0.5,1.8c-1.3,0.8-3.9-0.8-5.2,0.1
				s0.4,3.1-1.7,3.1c-0.4,0-0.2,0.7,0.1,0.7c1.9,0.2,1.7-0.2,2.1-1.7c0.6-2.5,4.4-0.8,6.5-1.4c0.2-0.1,0.3-0.3,0.2-0.5
				c0,0,0-0.1,0-0.1c-0.6-0.9,0.1-1.4,0.9-1.8c0.2-0.1,0.3-0.3,0.2-0.5c0,0,0,0,0-0.1c-0.2-0.4-1-1.7-0.5-2.3
				c0.7-0.2,1.5-0.2,2.2-0.3c1.6-0.1,3.3-0.1,4.9-0.1c0.2,0,0.3-0.2,0.3-0.4c0,0,0-0.1,0-0.1c-0.2-0.5,1.9-0.9,2.4-1
				c0.2-0.1,0.3-0.3,0.2-0.4c0,0,0,0,0,0c-1-2.5,2.7-1.6,4.3-1.4c0.2,0,0.4-0.1,0.4-0.3c0-0.1,0-0.1,0-0.2c-0.2-0.9-2.1-1.7,0.1-2
				c0.6,0,1.2,0.1,1.7,0.4c1,1.6,2.3,3,3.9,4C186.5,340.7,188,340.2,186.8,338.5z M186.1,338.9c0.5,0.6-1,0.1-1.2,0
				c-0.8-0.5-1.5-1.2-2-2.1c0.4,0.2,0.9,0.5,1.2,0.6C184.9,337.7,185.6,338.2,186.1,338.9L186.1,338.9z"/>
			<path class="st0" d="M210.3,319c-0.3-1.1-0.3-2.3,0.7-2.4c0.5-0.1,0.1-0.7-0.2-0.8c-1.4,0-1.8,1.2-1.6,2.6
				c-0.6-0.3-1.1-0.4-1.7-0.6c-0.9-0.2-1.5-0.2-1.8,0.7c-0.2,0.5,0.3,0.9,0.2,1.4c-0.1,0.7,0.7,0.4-0.4,0.7c-0.4,0-0.8,0-1.3-0.1
				c-0.7-0.2-1.4,0.1-1.9,0.6c-0.7,0.6,1,0.9-1,0.5c-0.5-0.2-1-0.3-1.6-0.2c-0.7,0.2-1.1,0.4-1,1.2c0.1,0.4,0.8,0.9,0.8,1.1
				c0,1.8-1.9,0.3-2.6,0c-0.2-0.1-0.4,0-0.4,0.2c0,0,0,0,0,0.1c0,0.9,0.6,1.2-0.7,1.2c-0.1,0-1-0.5-1.3-0.5c-0.8,0-1.6,1.1-2.6,1
				c-0.3,0-0.4,0.2-0.3,0.5c0.3,0.8,0.7,1.3-0.9,2c0,0-1.9-0.2-1.8-0.2c-0.4,0-0.2,0.8,0.2,0.8c0.7,0.1,3.2,1.1,3.9,0.1
				c0.5-0.7-0.5-1.6-0.3-2c-0.2,0.3,1.4-0.4,1.6-0.5c0.4-0.2,0.8-0.3,1.2-0.3c0.2,0,0.4,0.4,0.6,0.4s0.6,0.1,0.9,0s0.4-0.5,0.5-0.6
				c0.3-0.2-0.4-0.4,0.2-0.6c0.4-0.1,0.8,0.3,1.1,0.4c0.6,0.2,1.5,0.6,2,0c0.7-0.8-0.6-1.4-0.4-2c0.3-1.2,2-0.3,2.9-0.9
				c0.1-0.1,0.2-0.2,0.1-0.4c-0.5-1.7,2.6-0.4,3.6-0.6c0.2,0,0.4-0.1,0.3-0.4s-0.4-1.1-0.4-1.1c0.2-1,1.7-0.9,2.3-0.7
				c0.6,2.1,2.3,4.2,4.1,3.6c0.1,0,0.2-0.2,0.2-0.3C213.6,321.5,212,320,210.3,319z M211,320.8c-0.1-0.2-0.2-0.3-0.2-0.5
				c0.5,0.3,0.9,0.8,1.3,1.3C212.4,322.6,211.1,321.1,211,320.8L211,320.8z"/>
			<path class="st0" d="M192.6,357.3c-0.7-1.1-2-1.5-3.1-2c-0.5-0.2-1-0.5-1.5-0.8c-0.7-1.1-1.6-3-0.4-3.2c0.7-0.1,2.2,0.6,3,0.9
				c0.4,0.1,0.4-0.5,0-0.6c-1.4-0.5-4-2.2-4.5,0.1c-0.1,0.7,0,1.5,0.3,2.1c-0.6-0.3-1.3-0.4-2-0.4c-0.6,0.1-1.2,0.1-1.4,0.8
				c-0.1,0.4,0.1,0.6,0.1,0.9c0.1,0.3,0.3,0.6,0.6,0.7c-0.2,0-0.5-0.1-0.7-0.1c-1,0-3.6-0.7-4.2,0.5c-0.2,0.5,0.3,1.2,0.2,1.4
				s-1.9,0.7-2.2,0.9c-0.1,0.1-0.1,0.6-0.1,0.7c-0.9,0.1-1.9,0.1-2.8,0c-1.5,0.1-5.3-0.4-4.8,1.9c0.1,0.3,0.3,0.2,0.3,0.6
				c0,0.2,0.1,0.4,0.1,0.6c-0.1,0-0.2,0-0.4,0.3s-0.7,0.1-0.9,0.4c-0.7,0.9,0.4,1.2-0.5,1.8c-1.3,0.8-3.9-0.8-5.2,0.1
				c-1.1,0.8,0.4,3.1-1.7,3.1c-0.4,0-0.2,0.7,0.1,0.7c1.9,0.2,1.7-0.2,2.1-1.7c0.6-2.5,4.4-0.8,6.5-1.4c0.2-0.1,0.3-0.4,0.1-0.5
				c-0.6-0.9,0.1-1.4,0.9-1.8c0.2-0.1,0.3-0.3,0.2-0.5c0,0,0,0,0-0.1c-0.2-0.4-1-1.7-0.5-2.3c0.7-0.2,1.5-0.2,2.2-0.3
				c1.6-0.1,3.3-0.1,4.9-0.1c0.2,0,0.3-0.2,0.3-0.4c0,0,0-0.1,0-0.1c-0.2-0.5,1.9-0.9,2.4-1c0.2-0.1,0.3-0.3,0.2-0.4c0,0,0,0,0,0
				c-1-2.5,2.7-1.6,4.3-1.4c0.2,0,0.4-0.1,0.4-0.3c0-0.1,0-0.1,0-0.2c-0.2-0.9-2.1-1.7,0.1-2c0.6,0,1.2,0.1,1.7,0.4
				c1,1.6,2.3,3,3.9,4C192.3,359.5,193.8,359,192.6,357.3z M191.9,357.8c0.5,0.6-1,0.1-1.2,0c-0.8-0.5-1.5-1.2-2-2.1
				c0.4,0.2,0.9,0.5,1.2,0.6C190.7,356.6,191.4,357.1,191.9,357.8z"/>
			<path class="st0" d="M211.2,339.6c-0.3-1.1-0.3-2.3,0.7-2.5c0.5-0.1,0.1-0.7-0.2-0.8c-1.4,0-1.8,1.2-1.6,2.6
				c-0.6-0.3-1.1-0.4-1.7-0.6c-0.9-0.2-1.5-0.2-1.8,0.7c-0.2,0.5,0.3,0.9,0.2,1.4c0,0.7,0.7,0.4-0.4,0.7c-0.4,0-0.8-0.1-1.3-0.1
				c-0.7-0.2-1.4,0.1-1.9,0.6c-0.7,0.6,1,0.9-1,0.5c-0.5-0.2-1-0.2-1.6-0.2c-0.7,0.2-1.1,0.4-1,1.2c0.1,0.4,0.8,0.9,0.8,1.1
				c0,1.8-1.9,0.3-2.6,0c-0.2-0.1-0.4,0-0.4,0.2c0,0,0,0.1,0,0.1c0,0.9,0.6,1.2-0.7,1.2c-0.1,0-1-0.5-1.3-0.5c-0.8,0-1.6,1.1-2.6,1
				c-0.3,0-0.4,0.2-0.3,0.5c0.3,0.8,0.7,1.3-0.9,2c0,0-1.9-0.2-1.8-0.2c-0.5,0-0.2,0.7,0.2,0.8c0.7,0,3.2,1.1,3.9,0.1
				c0.5-0.7-0.5-1.6-0.3-2c-0.2,0.3,1.4-0.4,1.6-0.5c0.4-0.2,0.8-0.3,1.2-0.3c0.2,0,0.4,0.4,0.6,0.4s0.6,0.1,0.9,0s0.3-0.5,0.4-0.6
				c0.3-0.2-0.4-0.4,0.2-0.6c0.4-0.1,0.8,0.3,1.1,0.4c0.6,0.2,1.5,0.6,2,0c0.7-0.8-0.6-1.4-0.4-2c0.3-1.2,2-0.3,2.9-0.9
				c0.1-0.1,0.2-0.2,0.1-0.4c-0.5-1.7,2.6-0.4,3.6-0.6c0.2,0,0.4-0.1,0.3-0.4s-0.4-1.1-0.4-1.1c0.2-1,1.7-0.9,2.3-0.8
				c0.6,2.1,2.3,4.2,4.1,3.7c0.1,0,0.2-0.2,0.2-0.3C214.5,342,212.9,340.6,211.2,339.6z M211.9,341.3c-0.1-0.1-0.1-0.3-0.2-0.5
				c0.5,0.3,0.9,0.8,1.3,1.3C213.3,343.1,212.1,341.6,211.9,341.3L211.9,341.3z"/>
			<path class="st0" d="M232.5,325.3c0-0.1,0-0.3,0-0.4c-0.3-1.1-1.5-0.3-1.8,0.4s0.3,0.9,0.2,1.4c0,0.7,0.7,0.4-0.4,0.7
				c-0.4,0-0.8,0-1.3-0.1c-1.1,0-1.2,0-1.9,0.6s1,0.8-1,0.5c-0.5-0.2-1-0.2-1.6-0.2c-0.7,0.2-1.1,0.4-1,1.2c0.1,0.4,0.9,0.9,0.8,1.1
				c0,1.8-1.9,0.3-2.6,0c-0.2-0.1-0.4,0-0.4,0.2c0,0,0,0.1,0,0.1c0,0.9,0.6,1.2-0.7,1.2c-0.1,0-1-0.5-1.3-0.5c-0.8,0-1.6,1-2.6,1
				c-0.3,0-0.4,0.2-0.3,0.5c0.3,0.8,0.7,1.3-0.9,2c0,0-1.9-0.2-1.8-0.2c-0.5,0-0.2,0.8,0.2,0.8c0.7,0.1,3.2,1.1,3.9,0.1
				c0.5-0.7-0.5-1.6-0.3-2c-0.2,0.3,1.4-0.4,1.6-0.5c0.4-0.2,0.8-0.3,1.2-0.3c0.2,0,0.4,0.4,0.6,0.4s0.6,0.1,0.9,0s0.4-0.5,0.5-0.6
				c0.3-0.2-0.4-0.4,0.2-0.6s0.8,0.3,1.1,0.4c0.6,0.2,1.5,0.6,2,0c0.7-0.8-0.6-1.4-0.4-2c0.3-1.2,2-0.3,2.9-0.9
				c0.1-0.1,0.2-0.2,0.1-0.4c-0.5-1.7,2.6-0.4,3.6-0.6c0.2,0,0.4-0.1,0.3-0.4c-0.2-0.7-0.3-1.5-0.1-2.2
				C232.4,325.7,232.5,325.5,232.5,325.3z"/>
		</g>
	</g>
</g>
<g id="freepik--Character--inject-3">
	<g id="freepik--character--inject-3">
		<path class="st13" d="M105.3,113.1c4.7,5.6,12.4,13.1,16.7,18.6c2.3,2.9,3.6,6.4,3.5,10.1c0,2.7-0.8,5-3.4,3.8
			c-1.9-0.8-3.2-1.8-6-4.6c-2.5-2.5-14.8-14-14.8-14s-2.3-14.1-6.1-15.2s-7-7.2-7-7.2C94.5,104,99.4,106,105.3,113.1z"/>
		<path class="st14" d="M147.9,258.6l21.9,32c0.4,0.5,1.1,0.7,1.6,0.3c0.3-0.2,0.5-0.5,0.5-0.9l2.1-38.9L147.9,258.6z"/>
		<path class="st1" d="M171.9,290c0,0.7-0.6,1.1-1.2,1.1c-0.4,0-0.7-0.2-0.9-0.5l-4.3-6.2l0,0c2.4,0.5,4.9-0.3,6.4-2.2l0.4-0.5
			L171.9,290z"/>
		<path class="st2" d="M130.1,93.6l1,3.5l1.2,4.2L174,251.1c-2,3.9-5.5,6.8-9.6,8.2c-6.2,2.4-13.2,2.1-16.5-0.7l-41.5-148.8l-2.2-8
			C105.9,106.9,131.8,98.7,130.1,93.6z"/>
		<path class="st6" d="M133.8,106.7l2.1,7.7c0.7,2.2-3.7,5-9,7c-7.1,2.7-16,4.1-16.9,1.2l-1.6-5.6l-0.5-2c0.9,2.9,9.8,1.5,16.9-1.2
			c5.1-2,9.4-4.6,9.1-6.8l0,0C133.9,107,133.9,106.8,133.8,106.7z"/>
		<path class="st2" d="M134.3,108.7c1.6,5.2-24.3,13.3-26,8.2l-2.2-7.7c1.6,5.1,27.6-3,26-8.2L134.3,108.7z"/>
		<path class="st6" d="M130.1,93.6l2.1,7.6c1.6,5-23.3,13.2-25.8,8.6c-0.1-0.1-0.1-0.2-0.1-0.3l-2.1-7.7
			C105.9,106.9,131.8,98.7,130.1,93.6z"/>
		<path class="st3" d="M106.4,109.8l-2.2-8c0.8,2.3,6.5,1.9,12.4,0.2l0,0l43,158.6l10.3,30l-21.9-32l0,0L106.4,109.8z"/>
		<path class="st13" d="M121,61.2l9.1,32.4c0.7,2.2-3.6,5-8.9,7c-7.1,2.7-16,4.2-17,1.3l0,0l-8.7-31.2c-2.6-7.1,10.2-14.1,18.8-13.5
			C117.5,57.3,120.1,58.6,121,61.2z"/>
		<path class="st1" d="M83.1,99.4L83.1,99.4c-10.1,0-18.3-8.2-18.3-18.3v-1c0-8.6,6.9-15.5,15.5-15.5h5.6c8.6,0,15.5,6.9,15.5,15.5
			v1C101.4,91.3,93.2,99.4,83.1,99.4z"/>
		<path class="st1" d="M57.4,101.3L57.4,101.3c4.6,0,8.3-3.7,8.3-8.3V76.5l0,0c-4.6,0-8.3,3.7-8.3,8.3L57.4,101.3z"/>
		<path class="st1" d="M101.9,280.4c2.1,2.2,4.5,4.3,7,6.1c0.4,0.2,0.8,0.6,1,1c0.3,0.7,0.8,2.4-2.3,3.5c-3.2,1.1-6.7,0.8-9.6-0.9
			c-2.6-1.6-2.7-4.9-5.1-6.8c-1.8-1.4-4-1.8-5.5-3.6c-1-1.3-0.8-3-0.2-5.1c0.6-2.3,0.8-4,1.6-3.9l-0.1,1.1c1,1.5,5.9,2,8.1,0.9
			C98.3,275.2,100.1,277.9,101.9,280.4z"/>
		<path class="st14" d="M104.1,282.5L104.1,282.5c-0.8-0.7-1.5-1.4-2.2-2.1c-1.5-1.9-2.8-3.9-4-5.9c-0.9-1.3-1.5-2.8-1.7-4.3
			c-0.1-2,0.1-5.7,0.1-5.7l-7.3-0.5l-0.4,7.7l0,0c-0.2,1.7,1.2,3.3,3.8,5.5s5.8,7.3,8.1,8.6s4,1.2,4.9,0.6S106.6,285.1,104.1,282.5z
			"/>
		<path class="st1" d="M77.6,287.7c2.1,2.2,4.5,4.3,7,6.1c0.4,0.3,0.7,0.6,1,1c0.3,0.7,0.8,2.4-2.3,3.5c-3.2,1.1-6.7,0.8-9.6-0.9
			c-2.6-1.6-2.7-4.9-5.1-6.8c-1.8-1.4-4-1.8-5.5-3.6c-1-1.3-0.8-3-0.2-5.1c0.6-2.3,0.8-4,1.6-3.9l-0.1,1.1c1,1.5,5.9,2,8.1,0.9
			C74,282.6,75.7,285.2,77.6,287.7z"/>
		<path class="st14" d="M79.7,289.8L79.7,289.8c-0.7-0.7-1.5-1.4-2.2-2.1c-1.5-1.9-2.8-3.9-4-5.9c-0.9-1.3-1.5-2.8-1.7-4.4
			c-0.1-1.8,0-5.5,0-5.5h-7.3l-0.2,7.1l0,0c-0.2,1.7,1.2,3.3,3.8,5.5s5.8,7.3,8.1,8.6s3.9,1.2,4.9,0.6S82.2,292.4,79.7,289.8z"/>
		<path class="st15" d="M64.4,153.3C58,167.3,65.2,220,65.2,220c-0.2,2.3-2.2,5.8-2.4,12.7c-0.3,8.9,1.3,41.6,1.3,41.6
			c2.6,1.4,5.7,1.4,8.3,0.2c0,0,7.6-44.4,9-56.1c1.3-10.2,3.8-34.2,3.8-34.2l5.1,34.1c0,0-2.6,5.7-2.7,10.8
			c-0.2,6.9,0.8,38.9,0.8,38.9s3.1,1.1,8.5,0.3c0,0,7.7-43.3,8.4-51.6c0.4-4.9-3.3-65.5-3.3-65.5L64.4,153.3z"/>
		<path class="st1" d="M85.2,184.2l2.1-11.4c0,0,8.7-1.8,12.7-5.6c0,0-4.2,5.2-10.3,6.9l-2.3,10l2.3,29.8L85.2,184.2z"/>
		<path class="st16" d="M76.8,104.9L76.8,104.9c-5.6,0.8-8.6,2-10.4,7.3c-1.2,3.4-0.9,8.5,0.3,11.9l4.9,14.3
			c-2.9,4.7-5.4,9.7-7.3,14.9c14.3,8,33.3,3.7,37.6-2.1c0.2-1.2-1-7.2-0.6-13.5c0.4-6.8,1.4-14.5,0.4-18.7
			c-2-7.8-7.4-12.8-13.5-14.4L76.8,104.9z"/>
		<path class="st14" d="M95.4,72.1c1.9,1.1,4.3,6,4.1,16.2c-0.2,8.6-3,10.8-4.4,11.4s-4.1,0.2-6.8-0.2v5.2c0,0,3.6,4.2,3.4,6.6
			s-5.3,2.9-8.7,0.6c-2.2-1.6-4.1-3.6-5.6-5.8V93.4c0,0-1.8,2.4-4.7,0.4s-3-6.7-1.3-8.4s5.3-1.2,6,1.2c0,0,4.2,0.2,9.8-2.9
			C91.6,81.4,94.7,77,95.4,72.1z"/>
		<path class="st1" d="M89.8,86.1c0.1,0.6-0.4,1.1-1,1.2c0,0,0,0,0,0c-0.6,0.1-1.2-0.4-1.3-1c-0.1-0.6,0.4-1.2,1-1.3
			S89.7,85.4,89.8,86.1C89.8,86,89.8,86,89.8,86.1z"/>
		<path class="st13" d="M90.1,93.4l2.5,0.8c-0.2,0.7-0.9,1.1-1.6,0.9c0,0,0,0,0,0C90.3,94.9,89.9,94.1,90.1,93.4z"/>
		<path class="st1" d="M98.7,82.7l-2.2-1.5c0.4-0.6,1.2-0.8,1.8-0.4c0,0,0,0,0.1,0C98.9,81.3,99.1,82.1,98.7,82.7z"/>
		<path class="st1" d="M98.2,85.3c0,0.6-0.5,1.1-1.1,1.1c-0.6,0-1.1-0.5-1.1-1.1c0-0.6,0.5-1.1,1-1.1C97.7,84.2,98.2,84.7,98.2,85.3
			C98.2,85.3,98.2,85.3,98.2,85.3z"/>
		<polygon class="st13" points="93.1,84.7 93.2,91.2 96.7,90.1 		"/>
		<path class="st13" d="M88.3,99.4c-2.8-0.4-8.5-2-9.4-4.3c0.4,1.1,1.1,2.1,2,2.9c1.7,1.5,7.4,3.1,7.4,3.1V99.4z"/>
		<path class="st14" d="M132.2,147c-1.7,0.6-3.4,0.7-5.7,1.8c-1.5,0.9-3.2,1.4-5,1.4c-2.3,0.1-8.6-2.6-14.2-5.2
			c-6.1-2.9-11.6-6.9-16.3-11.7c-4.7-5.6-9-11.7-12.6-18.1c-2-3.4-4-8.4-7.2-9c-5.5,0.6-7.7,10.2-4.2,16.1s9.9,13.7,16.6,20.2
			c3.3,3.2,9.3,6.6,17.9,10.3c5.6,2.4,11.4,4.5,17.4,6c1.7,0.4,2.9,1.1,6.2,2.2c1.3,0.5,2.7,0.9,4.1,1c1.8,0.1,3.5-0.1,5.2-0.6
			c2.2-0.5,4.1-1.7,5.7-3.2c0.9-0.9,1.5-1.9,1.9-3.1c0.4-1.2,0.3-2.4-0.1-3.6c-0.1-0.2-0.2-0.4-0.4-0.6c-0.4-0.2-0.9-0.3-1.3-0.1
			c-2.5,0.5-5,0.9-7.5,1.2c-2.1,0.1-3.6-0.1-3.3-0.5s1.5-0.3,3.1-1.2s2.5-2.6,1.9-3.4S133.9,146.4,132.2,147z"/>
		<path class="st14" d="M136.9,123.9c0,0-2.3-1.8-6.6-1.1c-2.1,0.3-1.3,8.3,5.4,10.5c4.4,1.4,5.3,0.7,6.7,4.3c0,0,2.6-0.6,2-4.6
			c-0.7-4.1-2.5-8-5.3-11.2c-1.9-2.3-2.1-4.2-3-3.6s-0.4,2.6-0.4,2.6L136.9,123.9z"/>
	</g>
</g>
<g id="freepik--Coffee--inject-3">
	<g id="freepik--coffee--inject-3">
		<path class="st1" d="M415,166.7c-16.1-5.9-41.7-5.9-57.2,0s-15.5,15.5,0,21.4s41.2,5.9,57.2,0S431,172.6,415,166.7z"/>
		<path class="st9" d="M428.3,140.7l-83.5,0.1l6.3,98.4h0.1c0.4,3.6,3.7,7.1,10.1,9.9c13.6,5.8,36,5.8,50.1,0
			c6.6-2.7,10.1-6.3,10.5-9.9h0.1L428.3,140.7z"/>
		<path class="st7" d="M344.8,140.8l1.3,20c2.2,1.5,4.5,2.7,7,3.7c18.1,7.5,47.8,7.5,66.5,0c0.8-0.3,1.5-0.7,2.2-1
			c1.8-0.9,3.6-1.8,5.2-2.9l1.3-19.9L344.8,140.8z"/>
		<path class="st2" d="M433.6,143.6v-15h-9.7c-1.4-0.7-2.8-1.4-4.3-2c-18.7-7.5-48.5-7.5-66.5,0c-1.4,0.6-2.8,1.3-4.1,2h-9.5v15l0,0
			c0,4.9,4.5,9.8,13.5,13.5c18.1,7.5,47.8,7.5,66.5,0C428.9,153.4,433.6,148.5,433.6,143.6z"/>
		<path class="st2" d="M419.6,115c-18.7-7.5-48.5-7.5-66.5,0s-18,19.6,0,27.1s47.8,7.5,66.5,0S438.3,122.5,419.6,115z"/>
		<g class="st17">
			<path class="st4" d="M419.6,115c-18.7-7.5-48.5-7.5-66.5,0s-18,19.6,0,27.1s47.8,7.5,66.5,0S438.3,122.5,419.6,115z"/>
		</g>
		<path class="st2" d="M421.6,124.3L421.6,124.3l-3.8-13.8h-62.6l-3.8,13.8l0,0c-1.4,3.9,1.9,8,9.9,11c13.6,5.1,36,5.1,50,0
			C419.6,132.4,423,128.2,421.6,124.3z"/>
		<path class="st2" d="M408.6,103.6c-12.5-4.5-32.4-4.5-44.5,0s-12.1,11.9,0,16.4s32,4.5,44.5,0S421.1,108.1,408.6,103.6z"/>
		<g class="st17">
			<path class="st4" d="M408.6,103.6c-12.5-4.5-32.4-4.5-44.5,0s-12.1,11.9,0,16.4s32,4.5,44.5,0S421.1,108.1,408.6,103.6z"/>
		</g>
		<path class="st2" d="M413.7,111.8c0,0.2-0.4,0.8-1.4,1.6c-1.6,1.1-3.3,2-5.1,2.6c-5.5,2-13.1,3.2-20.9,3.2S371,118,365.7,116
			c-1.8-0.6-3.4-1.5-5-2.6c-1-0.8-1.3-1.4-1.3-1.6c0-0.3,1.1-2.2,6.2-4.2s12.8-3.1,20.6-3.1s15.4,1.2,20.9,3.2
			C412.4,109.5,413.7,111.4,413.7,111.8z"/>
		<g class="st18">
			<path d="M412.3,113.4c-1.6,1.1-3.3,2-5.1,2.6c-5.5,2-13.1,3.2-20.9,3.2S371,118,365.7,116c-1.8-0.6-3.4-1.5-5-2.6
				c1.5-1.1,3.2-2,5-2.6c5.3-2,12.8-3.1,20.6-3.1s15.4,1.1,20.9,3.2C409,111.4,410.7,112.3,412.3,113.4z"/>
		</g>
		<path class="st1" d="M399.8,113.7c1.8-1,4-1.4,4.9-0.9s0.2,1.8-1.6,2.8s-4,1.5-4.9,0.9S398,114.7,399.8,113.7z"/>
		<path class="st0" d="M348.4,213.1c0,3.7,3.7,7.3,11,10.1c14.6,5.6,38.8,5.6,53.9,0c7.6-2.8,11.4-6.4,11.4-10.1l2.3-35.7
			c0,3.9-4,7.8-12,10.7c-16.1,5.9-41.7,5.9-57.2,0c-7.8-3-11.7-6.8-11.6-10.7L348.4,213.1z"/>
		<path class="st1" d="M381.5,215.2c-1.4-1.8-2.1-4.1-3.2-6c-2-3.8-5.3-6.7-9.3-8.2c-0.5-0.2-1.2,0-1.5,0.5c-2,4.1-0.8,9.9,3.4,14.1
			s9.9,5.4,14,3.5c0.2-0.1,0.3-0.6,0.1-0.7C383.6,217.6,382.4,216.5,381.5,215.2z"/>
		<path class="st1" d="M371.2,199.8c2.2,0.9,4.1,2.1,5.9,3.6c1.8,1.6,3.2,3.6,4.2,5.8c1.6,3.3,3.1,5.4,5.4,7.1
			c0.5,0.4,1.2,0.3,1.6-0.2c0,0,0,0,0,0c2.7-4.1,1.6-10.5-2.9-15c-4.3-4.3-10.2-5.5-14.4-3.3c-0.5,0.3-0.7,1-0.4,1.6
			C370.8,199.5,371,199.7,371.2,199.8z"/>
	</g>
</g>
</svg>
